<?xml version="1.0" encoding="UTF-8" standalone="no"?>
<!DOCTYPE svg PUBLIC "-//W3C//DTD SVG 1.1//EN"
 "http://www.w3.org/Graphics/SVG/1.1/DTD/svg11.dtd">
<!-- Generated by graphviz version 2.40.1 (20161225.0304)
 -->
<!-- Title: dependencies Pages: 1 -->
<svg width="504pt" height="284pt"
 viewBox="0.00 0.00 504.00 284.00" xmlns="http://www.w3.org/2000/svg" xmlns:xlink="http://www.w3.org/1999/xlink">
<g id="graph0" class="graph" transform="scale(1 1) rotate(0) translate(4 280)">
<title>dependencies</title>
<polygon fill="#ffffff" stroke="transparent" points="-4,4 -4,-280 500,-280 500,4 -4,4"/>
<text text-anchor="start" x="227.0091" y="-42.4" font-family="sans-serif" font-weight="bold" font-size="14.00" fill="#000000">Legend</text>
<polygon fill="#ffffb3" stroke="transparent" points="14,-10 14,-30 34,-30 34,-10 14,-10"/>
<text text-anchor="start" x="37.629" y="-15.4" font-family="sans-serif" font-size="14.00" fill="#000000"> &#160;Declarations</text>
<polygon fill="#8dd3c7" stroke="transparent" points="127,-10 127,-30 147,-30 147,-10 127,-10"/>
<text text-anchor="start" x="150.7251" y="-15.4" font-family="sans-serif" font-size="14.00" fill="#000000"> &#160;Module</text>
<polygon fill="#80b1d3" stroke="transparent" points="213,-10 213,-30 233,-30 233,-10 213,-10"/>
<text text-anchor="start" x="236.7812" y="-15.4" font-family="sans-serif" font-size="14.00" fill="#000000"> &#160;Bootstrap</text>
<polygon fill="#fdb462" stroke="transparent" points="310,-10 310,-30 330,-30 330,-10 310,-10"/>
<text text-anchor="start" x="333.6732" y="-15.4" font-family="sans-serif" font-size="14.00" fill="#000000"> &#160;Providers</text>
<polygon fill="#fb8072" stroke="transparent" points="406,-10 406,-30 426,-30 426,-10 406,-10"/>
<text text-anchor="start" x="429.7258" y="-15.4" font-family="sans-serif" font-size="14.00" fill="#000000"> &#160;Exports</text>
<g id="clust1" class="cluster">
<title>cluster_SharedModule</title>
<polygon fill="none" stroke="#000000" stroke-dasharray="1,5" points="34,-70 34,-268 462,-268 462,-70 34,-70"/>
</g>
<g id="clust2" class="cluster">
<title>cluster_SharedModule_declarations</title>
<polygon fill="none" stroke="#000000" points="46,-78 46,-130 450,-130 450,-78 46,-78"/>
</g>
<g id="clust7" class="cluster">
<title>cluster_SharedModule_exports</title>
<polygon fill="none" stroke="#000000" points="42,-208 42,-260 454,-260 454,-208 42,-208"/>
</g>
<!-- ColoreComponent -->
<g id="node1" class="node">
<title>ColoreComponent</title>
<polygon fill="#ffffb3" stroke="#000000" points="441.9356,-122 322.0644,-122 322.0644,-86 441.9356,-86 441.9356,-122"/>
<text text-anchor="middle" x="382" y="-99.8" font-family="Times,serif" font-size="14.00" fill="#000000">ColoreComponent</text>
</g>
<!-- SharedModule -->
<g id="node4" class="node">
<title>SharedModule</title>
<polygon fill="#8dd3c7" stroke="#000000" points="296.4231,-187 293.4231,-191 272.4231,-191 269.4231,-187 197.5769,-187 197.5769,-151 296.4231,-151 296.4231,-187"/>
<text text-anchor="middle" x="247" y="-164.8" font-family="Times,serif" font-size="14.00" fill="#000000">SharedModule</text>
</g>
<!-- ColoreComponent&#45;&gt;SharedModule -->
<g id="edge1" class="edge">
<title>ColoreComponent&#45;&gt;SharedModule</title>
<path fill="none" stroke="#000000" d="M402.3225,-122.0225C402.3225,-139.3734 402.3225,-163 402.3225,-163 402.3225,-163 306.572,-163 306.572,-163"/>
<polygon fill="#000000" stroke="#000000" points="306.5721,-159.5001 296.572,-163 306.572,-166.5001 306.5721,-159.5001"/>
</g>
<!-- MenuComponent -->
<g id="node2" class="node">
<title>MenuComponent</title>
<polygon fill="#ffffb3" stroke="#000000" points="303.9916,-122 190.0084,-122 190.0084,-86 303.9916,-86 303.9916,-122"/>
<text text-anchor="middle" x="247" y="-99.8" font-family="Times,serif" font-size="14.00" fill="#000000">MenuComponent</text>
</g>
<!-- MenuComponent&#45;&gt;SharedModule -->
<g id="edge2" class="edge">
<title>MenuComponent&#45;&gt;SharedModule</title>
<path fill="none" stroke="#000000" d="M247,-122.1061C247,-122.1061 247,-140.991 247,-140.991"/>
<polygon fill="#000000" stroke="#000000" points="243.5001,-140.9909 247,-150.991 250.5001,-140.991 243.5001,-140.9909"/>
</g>
<!-- TagliaComponent -->
<g id="node3" class="node">
<title>TagliaComponent</title>
<polygon fill="#ffffb3" stroke="#000000" points="171.5954,-122 54.4046,-122 54.4046,-86 171.5954,-86 171.5954,-122"/>
<text text-anchor="middle" x="113" y="-99.8" font-family="Times,serif" font-size="14.00" fill="#000000">TagliaComponent</text>
</g>
<!-- TagliaComponent&#45;&gt;SharedModule -->
<g id="edge3" class="edge">
<title>TagliaComponent&#45;&gt;SharedModule</title>
<path fill="none" stroke="#000000" d="M131.6826,-122.0225C131.6826,-139.3734 131.6826,-163 131.6826,-163 131.6826,-163 187.7605,-163 187.7605,-163"/>
<polygon fill="#000000" stroke="#000000" points="187.7606,-166.5001 197.7605,-163 187.7605,-159.5001 187.7606,-166.5001"/>
</g>
<!-- ColoreComponent  -->
<g id="node5" class="node">
<title>ColoreComponent </title>
<polygon fill="#fb8072" stroke="#000000" points="446.4348,-252 323.5652,-252 323.5652,-216 446.4348,-216 446.4348,-252"/>
<text text-anchor="middle" x="385" y="-229.8" font-family="Times,serif" font-size="14.00" fill="#000000">ColoreComponent </text>
</g>
<!-- SharedModule&#45;&gt;ColoreComponent  -->
<g id="edge4" class="edge">
<title>SharedModule&#45;&gt;ColoreComponent </title>
<path fill="none" stroke="#000000" stroke-dasharray="5,2" d="M296.5,-175C328.0087,-175 362.9275,-175 362.9275,-175 362.9275,-175 362.9275,-205.9775 362.9275,-205.9775"/>
<polygon fill="#000000" stroke="#000000" points="359.4276,-205.9774 362.9275,-215.9775 366.4276,-205.9775 359.4276,-205.9774"/>
</g>
<!-- MenuComponent  -->
<g id="node6" class="node">
<title>MenuComponent </title>
<polygon fill="#fb8072" stroke="#000000" points="305.9926,-252 188.0074,-252 188.0074,-216 305.9926,-216 305.9926,-252"/>
<text text-anchor="middle" x="247" y="-229.8" font-family="Times,serif" font-size="14.00" fill="#000000">MenuComponent </text>
</g>
<!-- SharedModule&#45;&gt;MenuComponent  -->
<g id="edge5" class="edge">
<title>SharedModule&#45;&gt;MenuComponent </title>
<path fill="none" stroke="#000000" stroke-dasharray="5,2" d="M247,-187.1061C247,-187.1061 247,-205.991 247,-205.991"/>
<polygon fill="#000000" stroke="#000000" points="243.5001,-205.9909 247,-215.991 250.5001,-205.991 243.5001,-205.9909"/>
</g>
<!-- TagliaComponent  -->
<g id="node7" class="node">
<title>TagliaComponent </title>
<polygon fill="#fb8072" stroke="#000000" points="170.0961,-252 49.9039,-252 49.9039,-216 170.0961,-216 170.0961,-252"/>
<text text-anchor="middle" x="110" y="-229.8" font-family="Times,serif" font-size="14.00" fill="#000000">TagliaComponent </text>
</g>
<!-- SharedModule&#45;&gt;TagliaComponent  -->
<g id="edge6" class="edge">
<title>SharedModule&#45;&gt;TagliaComponent </title>
<path fill="none" stroke="#000000" stroke-dasharray="5,2" d="M197.4475,-175C152.4481,-175 93.0674,-175 93.0674,-175 93.0674,-175 93.0674,-205.9775 93.0674,-205.9775"/>
<polygon fill="#000000" stroke="#000000" points="89.5675,-205.9774 93.0674,-215.9775 96.5675,-205.9775 89.5675,-205.9774"/>
</g>
</g>
</svg>
